<?xml version="1.0" encoding="UTF-8" standalone="no"?>
<!DOCTYPE svg PUBLIC "-//W3C//DTD SVG 1.1//EN"
 "http://www.w3.org/Graphics/SVG/1.1/DTD/svg11.dtd">
<!-- Generated by graphviz version 9.0.0 (0)
 -->
<!-- Title: snakemake_dag Pages: 1 -->
<svg width="1734pt" height="1625pt"
 viewBox="0.00 0.00 1734.35 1624.86" xmlns="http://www.w3.org/2000/svg" xmlns:xlink="http://www.w3.org/1999/xlink">
<g id="graph0" class="graph" transform="scale(1 1) rotate(0) translate(4 1620.86)">
<title>snakemake_dag</title>
<polygon fill="white" stroke="none" points="-4,4 -4,-1620.86 1730.35,-1620.86 1730.35,4 -4,4"/>
<!-- 1 -->
<g id="node1" class="node">
<title>1</title>
<g id="a_node1"><a xlink:href="./qc_metrics_RNA/e5e8eae090756c931b202a2e13a4c7d8" xlink:title="qc_metrics_RNA\nhash: e5e8eae090756c931b202a2e13a4c7d8">
<path fill="none" stroke="#88d856" stroke-width="2" stroke-dasharray="5,2" d="M943.04,-833.3C943.04,-833.3 737.29,-833.3 737.29,-833.3 731.29,-833.3 725.29,-827.3 725.29,-821.3 725.29,-821.3 725.29,-808.8 725.29,-808.8 725.29,-802.8 731.29,-796.8 737.29,-796.8 737.29,-796.8 943.04,-796.8 943.04,-796.8 949.04,-796.8 955.04,-802.8 955.04,-808.8 955.04,-808.8 955.04,-821.3 955.04,-821.3 955.04,-827.3 949.04,-833.3 943.04,-833.3"/>
<text text-anchor="middle" x="840.17" y="-819.8" font-family="sans" font-size="10.00">qc_metrics_RNA</text>
<text text-anchor="middle" x="840.17" y="-805.55" font-family="sans" font-size="10.00">e5e8eae090756c931b202a2e13a4c7d8</text>
</a>
</g>
</g>
<!-- 3 -->
<g id="node3" class="node">
<title>3</title>
<g id="a_node3"><a xlink:href="./pl_metrics_RNA/1fb5dba59d1746e1c10e9fe213450ba5" xlink:title="pl_metrics_RNA\nhash: 1fb5dba59d1746e1c10e9fe213450ba5">
<path fill="none" stroke="#56c1d8" stroke-width="2" stroke-dasharray="5,2" d="M1073.64,-906.09C1073.64,-906.09 870.14,-906.09 870.14,-906.09 864.14,-906.09 858.14,-900.09 858.14,-894.09 858.14,-894.09 858.14,-881.59 858.14,-881.59 858.14,-875.59 864.14,-869.59 870.14,-869.59 870.14,-869.59 1073.64,-869.59 1073.64,-869.59 1079.64,-869.59 1085.64,-875.59 1085.64,-881.59 1085.64,-881.59 1085.64,-894.09 1085.64,-894.09 1085.64,-900.09 1079.64,-906.09 1073.64,-906.09"/>
<text text-anchor="middle" x="971.89" y="-892.59" font-family="sans" font-size="10.00">pl_metrics_RNA</text>
<text text-anchor="middle" x="971.89" y="-878.34" font-family="sans" font-size="10.00">1fb5dba59d1746e1c10e9fe213450ba5</text>
</a>
</g>
</g>
<!-- 1&#45;&gt;3 -->
<g id="edge1" class="edge">
<title>1&#45;&gt;3</title>
<path fill="none" stroke="grey" stroke-width="2" d="M874.78,-834.17C890.51,-842.87 909.34,-853.27 926.21,-862.6"/>
<polygon fill="grey" stroke="grey" stroke-width="2" points="924.42,-865.61 934.87,-867.38 927.81,-859.48 924.42,-865.61"/>
</g>
<!-- 4 -->
<g id="node4" class="node">
<title>4</title>
<g id="a_node4"><a xlink:href="./pl_metrics_RNA/60e11a7a7dc75d6ca57f081771083660" xlink:title="pl_metrics_RNA\nhash: 60e11a7a7dc75d6ca57f081771083660">
<path fill="none" stroke="#56c1d8" stroke-width="2" stroke-dasharray="5,2" d="M809.36,-758.33C809.36,-758.33 605.86,-758.33 605.86,-758.33 599.86,-758.33 593.86,-752.33 593.86,-746.33 593.86,-746.33 593.86,-733.83 593.86,-733.83 593.86,-727.83 599.86,-721.83 605.86,-721.83 605.86,-721.83 809.36,-721.83 809.36,-721.83 815.36,-721.83 821.36,-727.83 821.36,-733.83 821.36,-733.83 821.36,-746.33 821.36,-746.33 821.36,-752.33 815.36,-758.33 809.36,-758.33"/>
<text text-anchor="middle" x="707.61" y="-744.83" font-family="sans" font-size="10.00">pl_metrics_RNA</text>
<text text-anchor="middle" x="707.61" y="-730.58" font-family="sans" font-size="10.00">60e11a7a7dc75d6ca57f081771083660</text>
</a>
</g>
</g>
<!-- 1&#45;&gt;4 -->
<g id="edge2" class="edge">
<title>1&#45;&gt;4</title>
<path fill="none" stroke="grey" stroke-width="2" d="M806.37,-795.94C790.01,-786.68 770.14,-775.45 752.53,-765.48"/>
<polygon fill="grey" stroke="grey" stroke-width="2" points="754.4,-762.52 743.97,-760.64 750.95,-768.61 754.4,-762.52"/>
</g>
<!-- 7 -->
<g id="node7" class="node">
<title>7</title>
<g id="a_node7"><a xlink:href="./normalization_RNA/49a36a637e1cfa57dc8b65282b5af8f3" xlink:title="normalization_RNA\nhash: 49a36a637e1cfa57dc8b65282b5af8f3">
<path fill="none" stroke="#bed856" stroke-width="2" stroke-dasharray="5,2" d="M835.26,-1039C835.26,-1039 637.01,-1039 637.01,-1039 631.01,-1039 625.01,-1033 625.01,-1027 625.01,-1027 625.01,-1014.5 625.01,-1014.5 625.01,-1008.5 631.01,-1002.5 637.01,-1002.5 637.01,-1002.5 835.26,-1002.5 835.26,-1002.5 841.26,-1002.5 847.26,-1008.5 847.26,-1014.5 847.26,-1014.5 847.26,-1027 847.26,-1027 847.26,-1033 841.26,-1039 835.26,-1039"/>
<text text-anchor="middle" x="736.14" y="-1025.5" font-family="sans" font-size="10.00">normalization_RNA</text>
<text text-anchor="middle" x="736.14" y="-1011.25" font-family="sans" font-size="10.00">hash: 49a36a637e1cfa57dc8b65282b5af8f3</text>
<text text-anchor="middle" x="736.14" y="-997.0" font-family="sans" font-size="10.00">tfidf</text>
</a>
</g>
</g>
<!-- 1&#45;&gt;7 -->
<g id="edge5" class="edge">
<title>1&#45;&gt;7</title>
<path fill="none" stroke="grey" stroke-width="2" d="M834.53,-834.17C824.53,-866.4 801.73,-932.91 770.21,-982.8 768.26,-985.89 766.05,-988.97 763.72,-991.96"/>
<polygon fill="grey" stroke="grey" stroke-width="2" points="761.25,-989.47 757.48,-999.37 766.6,-993.98 761.25,-989.47"/>
</g>
<!-- 8 -->
<g id="node8" class="node">
<title>8</title>
<g id="a_node8"><a xlink:href="./normalization_RNA/e781096393e32a7dd66380c91a6587cb" xlink:title="normalization_RNA\nhash: e781096393e32a7dd66380c91a6587cb">
<path fill="none" stroke="#bed856" stroke-width="2" stroke-dasharray="5,2" d="M1061.59,-638.15C1061.59,-638.15 855.09,-638.15 855.09,-638.15 849.09,-638.15 843.09,-632.15 843.09,-626.15 843.09,-626.15 843.09,-613.65 843.09,-613.65 843.09,-607.65 849.09,-601.65 855.09,-601.65 855.09,-601.65 1061.59,-601.65 1061.59,-601.65 1067.59,-601.65 1073.59,-607.65 1073.59,-613.65 1073.59,-613.65 1073.59,-626.15 1073.59,-626.15 1073.59,-632.15 1067.59,-638.15 1061.59,-638.15"/>
<text text-anchor="middle" x="958.34" y="-624.65" font-family="sans" font-size="10.00">normalization_RNA</text>
<text text-anchor="middle" x="958.34" y="-610.4" font-family="sans" font-size="10.00">hash: e781096393e32a7dd66380c91a6587cb</text>
<text text-anchor="middle" x="958.34" y="-596.15" font-family="sans" font-size="10.00">normalize_total</text>
</a>
</g>
</g>
<!-- 1&#45;&gt;8 -->
<g id="edge6" class="edge">
<title>1&#45;&gt;8</title>
<path fill="none" stroke="grey" stroke-width="2" d="M851.71,-795.98C872.28,-762.03 915.39,-690.83 940.03,-650.14"/>
<polygon fill="grey" stroke="grey" stroke-width="2" points="942.99,-652 945.18,-641.63 937,-648.37 942.99,-652"/>
</g>
<!-- 2 -->
<g id="node2" class="node">
<title>2</title>
<g id="a_node2"><a xlink:href="./qc_metrics_ATAC/ac9350329bc3fe7ce3c89eac80db2492" xlink:title="qc_metrics_ATAC\nhash: ac9350329bc3fe7ce3c89eac80db2492">
<path fill="none" stroke="#d88d56" stroke-width="2" stroke-dasharray="5,2" d="M1531.44,-1129.37C1531.44,-1129.37 1331.69,-1129.37 1331.69,-1129.37 1325.69,-1129.37 1319.69,-1123.37 1319.69,-1117.37 1319.69,-1117.37 1319.69,-1104.87 1319.69,-1104.87 1319.69,-1098.87 1325.69,-1092.87 1331.69,-1092.87 1331.69,-1092.87 1531.44,-1092.87 1531.44,-1092.87 1537.44,-1092.87 1543.44,-1098.87 1543.44,-1104.87 1543.44,-1104.87 1543.44,-1117.37 1543.44,-1117.37 1543.44,-1123.37 1537.44,-1129.37 1531.44,-1129.37"/>
<text text-anchor="middle" x="1431.57" y="-1115.87" font-family="sans" font-size="10.00">qc_metrics_ATAC</text>
<text text-anchor="middle" x="1431.57" y="-1101.62" font-family="sans" font-size="10.00">ac9350329bc3fe7ce3c89eac80db2492</text>
</a>
</g>
</g>
<!-- 5 -->
<g id="node5" class="node">
<title>5</title>
<g id="a_node5"><a xlink:href="./pl_metrics_ATAC/118069b39f4c6e58a346368d7269f78a" xlink:title="pl_metrics_ATAC\nhash: 118069b39f4c6e58a346368d7269f78a">
<path fill="none" stroke="#59d856" stroke-width="2" stroke-dasharray="5,2" d="M1567.34,-1173.87C1567.34,-1173.87 1363.84,-1173.87 1363.84,-1173.87 1357.84,-1173.87 1351.84,-1167.87 1351.84,-1161.87 1351.84,-1161.87 1351.84,-1149.37 1351.84,-1149.37 1351.84,-1143.37 1357.84,-1137.37 1363.84,-1137.37 1363.84,-1137.37 1567.34,-1137.37 1567.34,-1137.37 1573.34,-1137.37 1579.34,-1143.37 1579.34,-1149.37 1579.34,-1149.37 1579.34,-1161.87 1579.34,-1161.87 1579.34,-1167.87 1573.34,-1173.87 1567.34,-1173.87"/>
<text text-anchor="middle" x="1465.59" y="-1160.37" font-family="sans" font-size="10.00">pl_metrics_ATAC</text>
<text text-anchor="middle" x="1465.59" y="-1146.12" font-family="sans" font-size="10.00">118069b39f4c6e58a346368d7269f78a</text>
</a>
</g>
</g>
<!-- 2&#45;&gt;5 -->
<g id="edge3" class="edge">
<title>2&#45;&gt;5</title>
<path fill="none" stroke="grey" stroke-width="2" d="M1446.19,-1130.25C1446.29,-1130.38 1446.39,-1130.51 1446.49,-1130.64"/>
<polygon fill="grey" stroke="grey" stroke-width="2" points="1440.28,-1128.28 1449.14,-1134.1 1445.85,-1124.03 1440.28,-1128.28"/>
</g>
<!-- 6 -->
<g id="node6" class="node">
<title>6</title>
<g id="a_node6"><a xlink:href="./pl_metrics_ATAC/9cde57d6bd182f25a19ad3ce714f7845" xlink:title="pl_metrics_ATAC\nhash: 9cde57d6bd182f25a19ad3ce714f7845">
<path fill="none" stroke="#59d856" stroke-width="2" stroke-dasharray="5,2" d="M1514,-1076.5C1514,-1076.5 1312,-1076.5 1312,-1076.5 1306,-1076.5 1300,-1070.5 1300,-1064.5 1300,-1064.5 1300,-1052 1300,-1052 1300,-1046 1306,-1040 1312,-1040 1312,-1040 1514,-1040 1514,-1040 1520,-1040 1526,-1046 1526,-1052 1526,-1052 1526,-1064.5 1526,-1064.5 1526,-1070.5 1520,-1076.5 1514,-1076.5"/>
<text text-anchor="middle" x="1413" y="-1063" font-family="sans" font-size="10.00">pl_metrics_ATAC</text>
<text text-anchor="middle" x="1413" y="-1048.75" font-family="sans" font-size="10.00">9cde57d6bd182f25a19ad3ce714f7845</text>
</a>
</g>
</g>
<!-- 2&#45;&gt;6 -->
<g id="edge4" class="edge">
<title>2&#45;&gt;6</title>
<path fill="none" stroke="grey" stroke-width="2" d="M1424.86,-1092.03C1424.55,-1091.14 1424.24,-1090.24 1423.92,-1089.34"/>
<polygon fill="grey" stroke="grey" stroke-width="2" points="1427.38,-1088.62 1420.76,-1080.34 1420.77,-1090.94 1427.38,-1088.62"/>
</g>
<!-- 9 -->
<g id="node9" class="node">
<title>9</title>
<g id="a_node9"><a xlink:href="./GenerateTMC_RNA/4004ee0df861ab57b266282ef5765794" xlink:title="GenerateTMC_RNA\nhash: 4004ee0df861ab57b266282ef5765794">
<path fill="none" stroke="#d8bc56" stroke-width="2" d="M755.01,-979.6C755.01,-979.6 549.26,-979.6 549.26,-979.6 543.26,-979.6 537.26,-973.6 537.26,-967.6 537.26,-967.6 537.26,-955.1 537.26,-955.1 537.26,-949.1 543.26,-943.1 549.26,-943.1 549.26,-943.1 755.01,-943.1 755.01,-943.1 761.01,-943.1 767.01,-949.1 767.01,-955.1 767.01,-955.1 767.01,-967.6 767.01,-967.6 767.01,-973.6 761.01,-979.6 755.01,-979.6"/>
<text text-anchor="middle" x="652.14" y="-966.1" font-family="sans" font-size="10.00">GenerateTMC_RNA</text>
<text text-anchor="middle" x="652.14" y="-951.85" font-family="sans" font-size="10.00">hash: 4004ee0df861ab57b266282ef5765794</text>
<text text-anchor="middle" x="652.14" y="-937.6" font-family="sans" font-size="10.00">tfidf</text>
</a>
</g>
</g>
<!-- 7&#45;&gt;9 -->
<g id="edge7" class="edge">
<title>7&#45;&gt;9</title>
<path fill="none" stroke="grey" stroke-width="2" d="M709.1,-1001.63C702.8,-997.18 695.99,-992.36 689.34,-987.66"/>
<polygon fill="grey" stroke="grey" stroke-width="2" points="691.78,-985.1 681.6,-982.18 687.74,-990.82 691.78,-985.1"/>
</g>
<!-- 13 -->
<g id="node13" class="node">
<title>13</title>
<g id="a_node13"><a xlink:href="./dim_red_RNA/b7afe7acb453fe3a69d2d855a6b1f121" xlink:title="dim_red_RNA\nhash: b7afe7acb453fe3a69d2d855a6b1f121">
<path fill="none" stroke="#568ad8" stroke-width="2" stroke-dasharray="5,2" d="M913.97,-1226.39C913.97,-1226.39 714.22,-1226.39 714.22,-1226.39 708.22,-1226.39 702.22,-1220.39 702.22,-1214.39 702.22,-1214.39 702.22,-1201.89 702.22,-1201.89 702.22,-1195.89 708.22,-1189.89 714.22,-1189.89 714.22,-1189.89 913.97,-1189.89 913.97,-1189.89 919.97,-1189.89 925.97,-1195.89 925.97,-1201.89 925.97,-1201.89 925.97,-1214.39 925.97,-1214.39 925.97,-1220.39 919.97,-1226.39 913.97,-1226.39"/>
<text text-anchor="middle" x="814.1" y="-1212.89" font-family="sans" font-size="10.00">dim_red_RNA</text>
<text text-anchor="middle" x="814.1" y="-1198.64" font-family="sans" font-size="10.00">hash: b7afe7acb453fe3a69d2d855a6b1f121</text>
<text text-anchor="middle" x="814.1" y="-1184.39" font-family="sans" font-size="10.00">lsa</text>
</a>
</g>
</g>
<!-- 7&#45;&gt;13 -->
<g id="edge11" class="edge">
<title>7&#45;&gt;13</title>
<path fill="none" stroke="grey" stroke-width="2" d="M744.04,-1039.75C757.49,-1072.09 784.96,-1138.12 801.22,-1177.2"/>
<polygon fill="grey" stroke="grey" stroke-width="2" points="797.93,-1178.41 805.01,-1186.3 804.4,-1175.72 797.93,-1178.41"/>
</g>
<!-- 14 -->
<g id="node14" class="node">
<title>14</title>
<g id="a_node14"><a xlink:href="./dim_red_RNA/e16579cd6a6670562e4a8b0c6995b6f4" xlink:title="dim_red_RNA\nhash: e16579cd6a6670562e4a8b0c6995b6f4">
<path fill="none" stroke="#568ad8" stroke-width="2" stroke-dasharray="5,2" d="M604.87,-1057.12C604.87,-1057.12 400.62,-1057.12 400.62,-1057.12 394.62,-1057.12 388.62,-1051.12 388.62,-1045.12 388.62,-1045.12 388.62,-1032.62 388.62,-1032.62 388.62,-1026.62 394.62,-1020.62 400.62,-1020.62 400.62,-1020.62 604.87,-1020.62 604.87,-1020.62 610.87,-1020.62 616.87,-1026.62 616.87,-1032.62 616.87,-1032.62 616.87,-1045.12 616.87,-1045.12 616.87,-1051.12 610.87,-1057.12 604.87,-1057.12"/>
<text text-anchor="middle" x="502.75" y="-1043.62" font-family="sans" font-size="10.00">dim_red_RNA</text>
<text text-anchor="middle" x="502.75" y="-1029.37" font-family="sans" font-size="10.00">hash: e16579cd6a6670562e4a8b0c6995b6f4</text>
<text text-anchor="middle" x="502.75" y="-1015.12" font-family="sans" font-size="10.00">pca</text>
</a>
</g>
</g>
<!-- 7&#45;&gt;14 -->
<g id="edge12" class="edge">
<title>7&#45;&gt;14</title>
<path fill="none" stroke="grey" stroke-width="2" d="M624.23,-1029.44C624.09,-1029.45 623.95,-1029.46 623.81,-1029.47"/>
<polygon fill="grey" stroke="grey" stroke-width="2" points="630.27,-1025.46 620.57,-1029.72 630.81,-1032.44 630.27,-1025.46"/>
</g>
<!-- 10 -->
<g id="node10" class="node">
<title>10</title>
<g id="a_node10"><a xlink:href="./GenerateTMC_RNA/7b7048ef267dd85a3f8642ef89f1d619" xlink:title="GenerateTMC_RNA\nhash: 7b7048ef267dd85a3f8642ef89f1d619">
<path fill="none" stroke="#d8bc56" stroke-width="2" d="M952.76,-593.65C952.76,-593.65 751.51,-593.65 751.51,-593.65 745.51,-593.65 739.51,-587.65 739.51,-581.65 739.51,-581.65 739.51,-569.15 739.51,-569.15 739.51,-563.15 745.51,-557.15 751.51,-557.15 751.51,-557.15 952.76,-557.15 952.76,-557.15 958.76,-557.15 964.76,-563.15 964.76,-569.15 964.76,-569.15 964.76,-581.65 964.76,-581.65 964.76,-587.65 958.76,-593.65 952.76,-593.65"/>
<text text-anchor="middle" x="852.13" y="-580.15" font-family="sans" font-size="10.00">GenerateTMC_RNA</text>
<text text-anchor="middle" x="852.13" y="-565.9" font-family="sans" font-size="10.00">hash: 7b7048ef267dd85a3f8642ef89f1d619</text>
<text text-anchor="middle" x="852.13" y="-551.65" font-family="sans" font-size="10.00">normalize_total</text>
</a>
</g>
</g>
<!-- 8&#45;&gt;10 -->
<g id="edge8" class="edge">
<title>8&#45;&gt;10</title>
<path fill="none" stroke="grey" stroke-width="2" d="M912.68,-600.77C911.6,-600.31 910.51,-599.86 909.42,-599.4"/>
<polygon fill="grey" stroke="grey" stroke-width="2" points="911.12,-596.32 900.54,-595.68 908.41,-602.77 911.12,-596.32"/>
</g>
<!-- 11 -->
<g id="node11" class="node">
<title>11</title>
<g id="a_node11"><a xlink:href="./dim_red_RNA/3e9f9019e4964cfb2183eb9a959a5298" xlink:title="dim_red_RNA\nhash: 3e9f9019e4964cfb2183eb9a959a5298">
<path fill="none" stroke="#568ad8" stroke-width="2" stroke-dasharray="5,2" d="M1297.22,-624.66C1297.22,-624.66 1093.72,-624.66 1093.72,-624.66 1087.72,-624.66 1081.72,-618.66 1081.72,-612.66 1081.72,-612.66 1081.72,-600.16 1081.72,-600.16 1081.72,-594.16 1087.72,-588.16 1093.72,-588.16 1093.72,-588.16 1297.22,-588.16 1297.22,-588.16 1303.22,-588.16 1309.22,-594.16 1309.22,-600.16 1309.22,-600.16 1309.22,-612.66 1309.22,-612.66 1309.22,-618.66 1303.22,-624.66 1297.22,-624.66"/>
<text text-anchor="middle" x="1195.47" y="-611.16" font-family="sans" font-size="10.00">dim_red_RNA</text>
<text text-anchor="middle" x="1195.47" y="-596.91" font-family="sans" font-size="10.00">hash: 3e9f9019e4964cfb2183eb9a959a5298</text>
<text text-anchor="middle" x="1195.47" y="-582.66" font-family="sans" font-size="10.00">lsa</text>
</a>
</g>
</g>
<!-- 8&#45;&gt;11 -->
<g id="edge9" class="edge">
<title>8&#45;&gt;11</title>
<path fill="none" stroke="grey" stroke-width="2" d="M1074.47,-613.29C1074.61,-613.29 1074.74,-613.28 1074.87,-613.27"/>
<polygon fill="grey" stroke="grey" stroke-width="2" points="1068,-617.17 1077.79,-613.11 1067.61,-610.18 1068,-617.17"/>
</g>
<!-- 12 -->
<g id="node12" class="node">
<title>12</title>
<g id="a_node12"><a xlink:href="./dim_red_RNA/7b350362bbfd9fdbf36e19cc6307fa88" xlink:title="dim_red_RNA\nhash: 7b350362bbfd9fdbf36e19cc6307fa88">
<path fill="none" stroke="#568ad8" stroke-width="2" stroke-dasharray="5,2" d="M955.91,-423.26C955.91,-423.26 757.66,-423.26 757.66,-423.26 751.66,-423.26 745.66,-417.26 745.66,-411.26 745.66,-411.26 745.66,-398.76 745.66,-398.76 745.66,-392.76 751.66,-386.76 757.66,-386.76 757.66,-386.76 955.91,-386.76 955.91,-386.76 961.91,-386.76 967.91,-392.76 967.91,-398.76 967.91,-398.76 967.91,-411.26 967.91,-411.26 967.91,-417.26 961.91,-423.26 955.91,-423.26"/>
<text text-anchor="middle" x="856.79" y="-409.76" font-family="sans" font-size="10.00">dim_red_RNA</text>
<text text-anchor="middle" x="856.79" y="-395.51" font-family="sans" font-size="10.00">hash: 7b350362bbfd9fdbf36e19cc6307fa88</text>
<text text-anchor="middle" x="856.79" y="-381.26" font-family="sans" font-size="10.00">pca</text>
</a>
</g>
</g>
<!-- 8&#45;&gt;12 -->
<g id="edge10" class="edge">
<title>8&#45;&gt;12</title>
<path fill="none" stroke="grey" stroke-width="2" d="M967,-600.7C967.38,-599.41 967.7,-598.12 967.96,-596.85 971.7,-578.15 973.97,-572.04 967.96,-553.95 952.04,-506.01 914.02,-461.01 886.88,-433.28"/>
<polygon fill="grey" stroke="grey" stroke-width="2" points="889.49,-430.93 879.93,-426.35 884.54,-435.89 889.49,-430.93"/>
</g>
<!-- 15 -->
<g id="node15" class="node">
<title>15</title>
<g id="a_node15"><a xlink:href="./Embeddings_RNA/1c2110595229a57cb443e593d47d7274" xlink:title="Embeddings_RNA\nhash: 1c2110595229a57cb443e593d47d7274">
<path fill="none" stroke="#56d88a" stroke-width="2" stroke-dasharray="5,2" d="M1366.81,-443.1C1366.81,-443.1 1159.56,-443.1 1159.56,-443.1 1153.56,-443.1 1147.56,-437.1 1147.56,-431.1 1147.56,-431.1 1147.56,-418.6 1147.56,-418.6 1147.56,-412.6 1153.56,-406.6 1159.56,-406.6 1159.56,-406.6 1366.81,-406.6 1366.81,-406.6 1372.81,-406.6 1378.81,-412.6 1378.81,-418.6 1378.81,-418.6 1378.81,-431.1 1378.81,-431.1 1378.81,-437.1 1372.81,-443.1 1366.81,-443.1"/>
<text text-anchor="middle" x="1263.18" y="-429.6" font-family="sans" font-size="10.00">Embeddings_RNA</text>
<text text-anchor="middle" x="1263.18" y="-415.35" font-family="sans" font-size="10.00">hash: 1c2110595229a57cb443e593d47d7274</text>
<text text-anchor="middle" x="1263.18" y="-401.1" font-family="sans" font-size="10.00">lsa()</text>
</a>
</g>
</g>
<!-- 11&#45;&gt;15 -->
<g id="edge13" class="edge">
<title>11&#45;&gt;15</title>
<path fill="none" stroke="grey" stroke-width="2" d="M1202.59,-587.33C1214.27,-556 1237.62,-493.39 1251.68,-455.7"/>
<polygon fill="grey" stroke="grey" stroke-width="2" points="1254.78,-457.39 1255,-446.79 1248.23,-454.94 1254.78,-457.39"/>
</g>
<!-- 17 -->
<g id="node17" class="node">
<title>17</title>
<g id="a_node17"><a xlink:href="./Embeddings_RNA/265826e445e26a50421fc83c234cd751" xlink:title="Embeddings_RNA\nhash: 265826e445e26a50421fc83c234cd751">
<path fill="none" stroke="#56d88a" stroke-width="2" stroke-dasharray="5,2" d="M1464.08,-531.95C1464.08,-531.95 1260.58,-531.95 1260.58,-531.95 1254.58,-531.95 1248.58,-525.95 1248.58,-519.95 1248.58,-519.95 1248.58,-507.45 1248.58,-507.45 1248.58,-501.45 1254.58,-495.45 1260.58,-495.45 1260.58,-495.45 1464.08,-495.45 1464.08,-495.45 1470.08,-495.45 1476.08,-501.45 1476.08,-507.45 1476.08,-507.45 1476.08,-519.95 1476.08,-519.95 1476.08,-525.95 1470.08,-531.95 1464.08,-531.95"/>
<text text-anchor="middle" x="1362.33" y="-518.45" font-family="sans" font-size="10.00">Embeddings_RNA</text>
<text text-anchor="middle" x="1362.33" y="-504.2" font-family="sans" font-size="10.00">hash: 265826e445e26a50421fc83c234cd751</text>
<text text-anchor="middle" x="1362.33" y="-489.95" font-family="sans" font-size="10.00">pca()</text>
</a>
</g>
</g>
<!-- 11&#45;&gt;17 -->
<g id="edge15" class="edge">
<title>11&#45;&gt;17</title>
<path fill="none" stroke="grey" stroke-width="2" d="M1230.04,-587.2C1255.1,-573.28 1289.24,-554.31 1316.56,-539.14"/>
<polygon fill="grey" stroke="grey" stroke-width="2" points="1318.11,-542.27 1325.16,-534.36 1314.71,-536.16 1318.11,-542.27"/>
</g>
<!-- 27 -->
<g id="node27" class="node">
<title>27</title>
<g id="a_node27"><a xlink:href="./Embeddings_RNA/ab87c1d40c95964eafcb201494608aec" xlink:title="Embeddings_RNA\nhash: ab87c1d40c95964eafcb201494608aec">
<path fill="none" stroke="#56d88a" stroke-width="2" stroke-dasharray="5,2" d="M1485.44,-669.19C1485.44,-669.19 1284.94,-669.19 1284.94,-669.19 1278.94,-669.19 1272.94,-663.19 1272.94,-657.19 1272.94,-657.19 1272.94,-644.69 1272.94,-644.69 1272.94,-638.69 1278.94,-632.69 1284.94,-632.69 1284.94,-632.69 1485.44,-632.69 1485.44,-632.69 1491.44,-632.69 1497.44,-638.69 1497.44,-644.69 1497.44,-644.69 1497.44,-657.19 1497.44,-657.19 1497.44,-663.19 1491.44,-669.19 1485.44,-669.19"/>
<text text-anchor="middle" x="1385.19" y="-655.69" font-family="sans" font-size="10.00">Embeddings_RNA</text>
<text text-anchor="middle" x="1385.19" y="-641.44" font-family="sans" font-size="10.00">hash: ab87c1d40c95964eafcb201494608aec</text>
<text text-anchor="middle" x="1385.19" y="-627.19" font-family="sans" font-size="10.00">umap(m_dist~0.6_n_neigh~20)</text>
</a>
</g>
</g>
<!-- 11&#45;&gt;27 -->
<g id="edge25" class="edge">
<title>11&#45;&gt;27</title>
<path fill="none" stroke="grey" stroke-width="2" d="M1277.31,-625.62C1281.75,-626.66 1286.24,-627.71 1290.72,-628.77"/>
<polygon fill="grey" stroke="grey" stroke-width="2" points="1289.85,-632.15 1300.38,-631.03 1291.44,-625.34 1289.85,-632.15"/>
</g>
<!-- 28 -->
<g id="node28" class="node">
<title>28</title>
<g id="a_node28"><a xlink:href="./Embeddings_RNA/b68109062250ddb30b6a5c2c69cbb1be" xlink:title="Embeddings_RNA\nhash: b68109062250ddb30b6a5c2c69cbb1be">
<path fill="none" stroke="#56d88a" stroke-width="2" stroke-dasharray="5,2" d="M1430.21,-778.33C1430.21,-778.33 1224.46,-778.33 1224.46,-778.33 1218.46,-778.33 1212.46,-772.33 1212.46,-766.33 1212.46,-766.33 1212.46,-753.83 1212.46,-753.83 1212.46,-747.83 1218.46,-741.83 1224.46,-741.83 1224.46,-741.83 1430.21,-741.83 1430.21,-741.83 1436.21,-741.83 1442.21,-747.83 1442.21,-753.83 1442.21,-753.83 1442.21,-766.33 1442.21,-766.33 1442.21,-772.33 1436.21,-778.33 1430.21,-778.33"/>
<text text-anchor="middle" x="1327.34" y="-764.83" font-family="sans" font-size="10.00">Embeddings_RNA</text>
<text text-anchor="middle" x="1327.34" y="-750.58" font-family="sans" font-size="10.00">hash: b68109062250ddb30b6a5c2c69cbb1be</text>
<text text-anchor="middle" x="1327.34" y="-736.33" font-family="sans" font-size="10.00">tsne(px~50)</text>
</a>
</g>
</g>
<!-- 11&#45;&gt;28 -->
<g id="edge26" class="edge">
<title>11&#45;&gt;28</title>
<path fill="none" stroke="grey" stroke-width="2" d="M1211.9,-625.56C1234.73,-652.16 1276.21,-700.5 1302.74,-731.41"/>
<polygon fill="grey" stroke="grey" stroke-width="2" points="1299.97,-733.56 1309.14,-738.87 1305.28,-729 1299.97,-733.56"/>
</g>
<!-- 16 -->
<g id="node16" class="node">
<title>16</title>
<g id="a_node16"><a xlink:href="./Embeddings_RNA/2083d3605ef7156ceb6076508e1f0e48" xlink:title="Embeddings_RNA\nhash: 2083d3605ef7156ceb6076508e1f0e48">
<path fill="none" stroke="#56d88a" stroke-width="2" stroke-dasharray="5,2" d="M1095.79,-282.13C1095.79,-282.13 890.79,-282.13 890.79,-282.13 884.79,-282.13 878.79,-276.13 878.79,-270.13 878.79,-270.13 878.79,-257.63 878.79,-257.63 878.79,-251.63 884.79,-245.63 890.79,-245.63 890.79,-245.63 1095.79,-245.63 1095.79,-245.63 1101.79,-245.63 1107.79,-251.63 1107.79,-257.63 1107.79,-257.63 1107.79,-270.13 1107.79,-270.13 1107.79,-276.13 1101.79,-282.13 1095.79,-282.13"/>
<text text-anchor="middle" x="993.29" y="-268.63" font-family="sans" font-size="10.00">Embeddings_RNA</text>
<text text-anchor="middle" x="993.29" y="-254.38" font-family="sans" font-size="10.00">hash: 2083d3605ef7156ceb6076508e1f0e48</text>
<text text-anchor="middle" x="993.29" y="-240.13" font-family="sans" font-size="10.00">umap(m_dist~0.6_n_neigh~20)</text>
</a>
</g>
</g>
<!-- 12&#45;&gt;16 -->
<g id="edge14" class="edge">
<title>12&#45;&gt;16</title>
<path fill="none" stroke="grey" stroke-width="2" d="M875.2,-385.98C898.5,-361.89 938.85,-320.17 965.81,-292.29"/>
<polygon fill="grey" stroke="grey" stroke-width="2" points="968.2,-294.86 972.63,-285.24 963.16,-290 968.2,-294.86"/>
</g>
<!-- 18 -->
<g id="node18" class="node">
<title>18</title>
<g id="a_node18"><a xlink:href="./Embeddings_RNA/59d59548c5728cb50dc9e65936bcae52" xlink:title="Embeddings_RNA\nhash: 59d59548c5728cb50dc9e65936bcae52">
<path fill="none" stroke="#56d88a" stroke-width="2" stroke-dasharray="5,2" d="M775.7,-367.14C775.7,-367.14 571.45,-367.14 571.45,-367.14 565.45,-367.14 559.45,-361.14 559.45,-355.14 559.45,-355.14 559.45,-342.64 559.45,-342.64 559.45,-336.64 565.45,-330.64 571.45,-330.64 571.45,-330.64 775.7,-330.64 775.7,-330.64 781.7,-330.64 787.7,-336.64 787.7,-342.64 787.7,-342.64 787.7,-355.14 787.7,-355.14 787.7,-361.14 781.7,-367.14 775.7,-367.14"/>
<text text-anchor="middle" x="673.58" y="-353.64" font-family="sans" font-size="10.00">Embeddings_RNA</text>
<text text-anchor="middle" x="673.58" y="-339.39" font-family="sans" font-size="10.00">hash: 59d59548c5728cb50dc9e65936bcae52</text>
<text text-anchor="middle" x="673.58" y="-325.14" font-family="sans" font-size="10.00">pca()</text>
</a>
</g>
</g>
<!-- 12&#45;&gt;18 -->
<g id="edge16" class="edge">
<title>12&#45;&gt;18</title>
<path fill="none" stroke="grey" stroke-width="2" d="M793.99,-385.78C779.43,-381.32 763.78,-376.52 748.74,-371.92"/>
<polygon fill="grey" stroke="grey" stroke-width="2" points="749.77,-368.57 739.18,-368.99 747.72,-375.27 749.77,-368.57"/>
</g>
<!-- 19 -->
<g id="node19" class="node">
<title>19</title>
<g id="a_node19"><a xlink:href="./Embeddings_RNA/5d149ae3bb6e9eb8756397fb425c2d7d" xlink:title="Embeddings_RNA\nhash: 5d149ae3bb6e9eb8756397fb425c2d7d">
<path fill="none" stroke="#56d88a" stroke-width="2" stroke-dasharray="5,2" d="M815.54,-306.55C815.54,-306.55 609.04,-306.55 609.04,-306.55 603.04,-306.55 597.04,-300.55 597.04,-294.55 597.04,-294.55 597.04,-282.05 597.04,-282.05 597.04,-276.05 603.04,-270.05 609.04,-270.05 609.04,-270.05 815.54,-270.05 815.54,-270.05 821.54,-270.05 827.54,-276.05 827.54,-282.05 827.54,-282.05 827.54,-294.55 827.54,-294.55 827.54,-300.55 821.54,-306.55 815.54,-306.55"/>
<text text-anchor="middle" x="712.29" y="-293.05" font-family="sans" font-size="10.00">Embeddings_RNA</text>
<text text-anchor="middle" x="712.29" y="-278.8" font-family="sans" font-size="10.00">hash: 5d149ae3bb6e9eb8756397fb425c2d7d</text>
<text text-anchor="middle" x="712.29" y="-264.55" font-family="sans" font-size="10.00">lsa()</text>
</a>
</g>
</g>
<!-- 12&#45;&gt;19 -->
<g id="edge17" class="edge">
<title>12&#45;&gt;19</title>
<path fill="none" stroke="grey" stroke-width="2" d="M843.95,-385.87C831.82,-368.88 812.33,-344.22 790.9,-327.44 784.45,-322.39 777.23,-317.73 769.86,-313.52"/>
<polygon fill="grey" stroke="grey" stroke-width="2" points="771.77,-310.58 761.31,-308.93 768.46,-316.74 771.77,-310.58"/>
</g>
<!-- 20 -->
<g id="node20" class="node">
<title>20</title>
<g id="a_node20"><a xlink:href="./Embeddings_RNA/625e6c283148a1833252a34b3e69508a" xlink:title="Embeddings_RNA\nhash: 625e6c283148a1833252a34b3e69508a">
<path fill="none" stroke="#56d88a" stroke-width="2" stroke-dasharray="5,2" d="M971.01,-236.69C971.01,-236.69 763.76,-236.69 763.76,-236.69 757.76,-236.69 751.76,-230.69 751.76,-224.69 751.76,-224.69 751.76,-212.19 751.76,-212.19 751.76,-206.19 757.76,-200.19 763.76,-200.19 763.76,-200.19 971.01,-200.19 971.01,-200.19 977.01,-200.19 983.01,-206.19 983.01,-212.19 983.01,-212.19 983.01,-224.69 983.01,-224.69 983.01,-230.69 977.01,-236.69 971.01,-236.69"/>
<text text-anchor="middle" x="867.39" y="-223.19" font-family="sans" font-size="10.00">Embeddings_RNA</text>
<text text-anchor="middle" x="867.39" y="-208.94" font-family="sans" font-size="10.00">hash: 625e6c283148a1833252a34b3e69508a</text>
<text text-anchor="middle" x="867.39" y="-194.69" font-family="sans" font-size="10.00">tsne(px~50)</text>
</a>
</g>
</g>
<!-- 12&#45;&gt;20 -->
<g id="edge18" class="edge">
<title>12&#45;&gt;20</title>
<path fill="none" stroke="grey" stroke-width="2" d="M857.86,-386.1C859.67,-354.26 863.34,-289.64 865.56,-250.58"/>
<polygon fill="grey" stroke="grey" stroke-width="2" points="869.05,-250.89 866.12,-240.71 862.06,-250.49 869.05,-250.89"/>
</g>
<!-- 23 -->
<g id="node23" class="node">
<title>23</title>
<g id="a_node23"><a xlink:href="./Embeddings_RNA/844c70d5247ea09933cb26b8f302df26" xlink:title="Embeddings_RNA\nhash: 844c70d5247ea09933cb26b8f302df26">
<path fill="none" stroke="#56d88a" stroke-width="2" stroke-dasharray="5,2" d="M950.43,-1418.19C950.43,-1418.19 747.68,-1418.19 747.68,-1418.19 741.68,-1418.19 735.68,-1412.19 735.68,-1406.19 735.68,-1406.19 735.68,-1393.69 735.68,-1393.69 735.68,-1387.69 741.68,-1381.69 747.68,-1381.69 747.68,-1381.69 950.43,-1381.69 950.43,-1381.69 956.43,-1381.69 962.43,-1387.69 962.43,-1393.69 962.43,-1393.69 962.43,-1406.19 962.43,-1406.19 962.43,-1412.19 956.43,-1418.19 950.43,-1418.19"/>
<text text-anchor="middle" x="849.06" y="-1404.69" font-family="sans" font-size="10.00">Embeddings_RNA</text>
<text text-anchor="middle" x="849.06" y="-1390.44" font-family="sans" font-size="10.00">hash: 844c70d5247ea09933cb26b8f302df26</text>
<text text-anchor="middle" x="849.06" y="-1376.19" font-family="sans" font-size="10.00">pca()</text>
</a>
</g>
</g>
<!-- 13&#45;&gt;23 -->
<g id="edge21" class="edge">
<title>13&#45;&gt;23</title>
<path fill="none" stroke="grey" stroke-width="2" d="M817.58,-1227.23C823.58,-1260.19 835.96,-1328.08 843.28,-1368.23"/>
<polygon fill="grey" stroke="grey" stroke-width="2" points="839.81,-1368.74 845.05,-1377.95 846.7,-1367.48 839.81,-1368.74"/>
</g>
<!-- 24 -->
<g id="node24" class="node">
<title>24</title>
<g id="a_node24"><a xlink:href="./Embeddings_RNA/881ca07e2a2221e2e1475040511645c7" xlink:title="Embeddings_RNA\nhash: 881ca07e2a2221e2e1475040511645c7">
<path fill="none" stroke="#56d88a" stroke-width="2" stroke-dasharray="5,2" d="M789.55,-1373.65C789.55,-1373.65 583.05,-1373.65 583.05,-1373.65 577.05,-1373.65 571.05,-1367.65 571.05,-1361.65 571.05,-1361.65 571.05,-1349.15 571.05,-1349.15 571.05,-1343.15 577.05,-1337.15 583.05,-1337.15 583.05,-1337.15 789.55,-1337.15 789.55,-1337.15 795.55,-1337.15 801.55,-1343.15 801.55,-1349.15 801.55,-1349.15 801.55,-1361.65 801.55,-1361.65 801.55,-1367.65 795.55,-1373.65 789.55,-1373.65"/>
<text text-anchor="middle" x="686.3" y="-1360.15" font-family="sans" font-size="10.00">Embeddings_RNA</text>
<text text-anchor="middle" x="686.3" y="-1345.9" font-family="sans" font-size="10.00">hash: 881ca07e2a2221e2e1475040511645c7</text>
<text text-anchor="middle" x="686.3" y="-1331.65" font-family="sans" font-size="10.00">umap(m_dist~0.6_n_neigh~20)</text>
</a>
</g>
</g>
<!-- 13&#45;&gt;24 -->
<g id="edge22" class="edge">
<title>13&#45;&gt;24</title>
<path fill="none" stroke="grey" stroke-width="2" d="M797.65,-1227.09C775.7,-1252.39 736.64,-1297.4 711.1,-1326.83"/>
<polygon fill="grey" stroke="grey" stroke-width="2" points="708.58,-1324.39 704.67,-1334.24 713.87,-1328.98 708.58,-1324.39"/>
</g>
<!-- 26 -->
<g id="node26" class="node">
<title>26</title>
<g id="a_node26"><a xlink:href="./Embeddings_RNA/9dd2950b926baec2afd8c58c40ee7edd" xlink:title="Embeddings_RNA\nhash: 9dd2950b926baec2afd8c58c40ee7edd">
<path fill="none" stroke="#56d88a" stroke-width="2" stroke-dasharray="5,2" d="M1067.29,-1363.61C1067.29,-1363.61 864.54,-1363.61 864.54,-1363.61 858.54,-1363.61 852.54,-1357.61 852.54,-1351.61 852.54,-1351.61 852.54,-1339.11 852.54,-1339.11 852.54,-1333.11 858.54,-1327.11 864.54,-1327.11 864.54,-1327.11 1067.29,-1327.11 1067.29,-1327.11 1073.29,-1327.11 1079.29,-1333.11 1079.29,-1339.11 1079.29,-1339.11 1079.29,-1351.61 1079.29,-1351.61 1079.29,-1357.61 1073.29,-1363.61 1067.29,-1363.61"/>
<text text-anchor="middle" x="965.91" y="-1350.11" font-family="sans" font-size="10.00">Embeddings_RNA</text>
<text text-anchor="middle" x="965.91" y="-1335.86" font-family="sans" font-size="10.00">hash: 9dd2950b926baec2afd8c58c40ee7edd</text>
<text text-anchor="middle" x="965.91" y="-1321.61" font-family="sans" font-size="10.00">lsa()</text>
</a>
</g>
</g>
<!-- 13&#45;&gt;26 -->
<g id="edge24" class="edge">
<title>13&#45;&gt;26</title>
<path fill="none" stroke="grey" stroke-width="2" d="M835.2,-1227.22C861.26,-1250.77 905.77,-1291 935.51,-1317.88"/>
<polygon fill="grey" stroke="grey" stroke-width="2" points="932.97,-1320.3 942.74,-1324.41 937.66,-1315.11 932.97,-1320.3"/>
</g>
<!-- 30 -->
<g id="node30" class="node">
<title>30</title>
<g id="a_node30"><a xlink:href="./Embeddings_RNA/faeef8298bf72bdcc2e316ee83644171" xlink:title="Embeddings_RNA\nhash: faeef8298bf72bdcc2e316ee83644171">
<path fill="none" stroke="#56d88a" stroke-width="2" stroke-dasharray="5,2" d="M1146.65,-1261.09C1146.65,-1261.09 946.15,-1261.09 946.15,-1261.09 940.15,-1261.09 934.15,-1255.09 934.15,-1249.09 934.15,-1249.09 934.15,-1236.59 934.15,-1236.59 934.15,-1230.59 940.15,-1224.59 946.15,-1224.59 946.15,-1224.59 1146.65,-1224.59 1146.65,-1224.59 1152.65,-1224.59 1158.65,-1230.59 1158.65,-1236.59 1158.65,-1236.59 1158.65,-1249.09 1158.65,-1249.09 1158.65,-1255.09 1152.65,-1261.09 1146.65,-1261.09"/>
<text text-anchor="middle" x="1046.4" y="-1247.59" font-family="sans" font-size="10.00">Embeddings_RNA</text>
<text text-anchor="middle" x="1046.4" y="-1233.34" font-family="sans" font-size="10.00">hash: faeef8298bf72bdcc2e316ee83644171</text>
<text text-anchor="middle" x="1046.4" y="-1219.09" font-family="sans" font-size="10.00">tsne(px~50)</text>
</a>
</g>
</g>
<!-- 13&#45;&gt;30 -->
<g id="edge28" class="edge">
<title>13&#45;&gt;30</title>
<path fill="none" stroke="grey" stroke-width="2" d="M926.85,-1224.99C926.98,-1225.01 927.12,-1225.03 927.26,-1225.05"/>
<polygon fill="grey" stroke="grey" stroke-width="2" points="920.03,-1227.51 930.44,-1225.52 921.07,-1220.58 920.03,-1227.51"/>
</g>
<!-- 21 -->
<g id="node21" class="node">
<title>21</title>
<g id="a_node21"><a xlink:href="./Embeddings_RNA/70d0f8bd835f540a6e5f1b07bfd2da52" xlink:title="Embeddings_RNA\nhash: 70d0f8bd835f540a6e5f1b07bfd2da52">
<path fill="none" stroke="#56d88a" stroke-width="2" stroke-dasharray="5,2" d="M539.88,-1238.99C539.88,-1238.99 339.38,-1238.99 339.38,-1238.99 333.38,-1238.99 327.38,-1232.99 327.38,-1226.99 327.38,-1226.99 327.38,-1214.49 327.38,-1214.49 327.38,-1208.49 333.38,-1202.49 339.38,-1202.49 339.38,-1202.49 539.88,-1202.49 539.88,-1202.49 545.88,-1202.49 551.88,-1208.49 551.88,-1214.49 551.88,-1214.49 551.88,-1226.99 551.88,-1226.99 551.88,-1232.99 545.88,-1238.99 539.88,-1238.99"/>
<text text-anchor="middle" x="439.63" y="-1225.49" font-family="sans" font-size="10.00">Embeddings_RNA</text>
<text text-anchor="middle" x="439.63" y="-1211.24" font-family="sans" font-size="10.00">hash: 70d0f8bd835f540a6e5f1b07bfd2da52</text>
<text text-anchor="middle" x="439.63" y="-1196.99" font-family="sans" font-size="10.00">pca()</text>
</a>
</g>
</g>
<!-- 14&#45;&gt;21 -->
<g id="edge19" class="edge">
<title>14&#45;&gt;21</title>
<path fill="none" stroke="grey" stroke-width="2" d="M496.11,-1057.99C485.27,-1089.23 463.64,-1151.54 450.52,-1189.34"/>
<polygon fill="grey" stroke="grey" stroke-width="2" points="447.23,-1188.15 447.26,-1198.74 453.85,-1190.44 447.23,-1188.15"/>
</g>
<!-- 22 -->
<g id="node22" class="node">
<title>22</title>
<g id="a_node22"><a xlink:href="./Embeddings_RNA/76b0d8f6e394f39c595b58d9201b36ae" xlink:title="Embeddings_RNA\nhash: 76b0d8f6e394f39c595b58d9201b36ae">
<path fill="none" stroke="#56d88a" stroke-width="2" stroke-dasharray="5,2" d="M445.91,-986.52C445.91,-986.52 241.66,-986.52 241.66,-986.52 235.66,-986.52 229.66,-980.52 229.66,-974.52 229.66,-974.52 229.66,-962.02 229.66,-962.02 229.66,-956.02 235.66,-950.02 241.66,-950.02 241.66,-950.02 445.91,-950.02 445.91,-950.02 451.91,-950.02 457.91,-956.02 457.91,-962.02 457.91,-962.02 457.91,-974.52 457.91,-974.52 457.91,-980.52 451.91,-986.52 445.91,-986.52"/>
<text text-anchor="middle" x="343.78" y="-973.02" font-family="sans" font-size="10.00">Embeddings_RNA</text>
<text text-anchor="middle" x="343.78" y="-958.77" font-family="sans" font-size="10.00">hash: 76b0d8f6e394f39c595b58d9201b36ae</text>
<text text-anchor="middle" x="343.78" y="-944.52" font-family="sans" font-size="10.00">tsne(px~50)</text>
</a>
</g>
</g>
<!-- 14&#45;&gt;22 -->
<g id="edge20" class="edge">
<title>14&#45;&gt;22</title>
<path fill="none" stroke="grey" stroke-width="2" d="M459.73,-1019.76C440.98,-1011.44 418.79,-1001.58 398.86,-992.73"/>
<polygon fill="grey" stroke="grey" stroke-width="2" points="400.44,-989.6 389.88,-988.74 397.6,-996 400.44,-989.6"/>
</g>
<!-- 25 -->
<g id="node25" class="node">
<title>25</title>
<g id="a_node25"><a xlink:href="./Embeddings_RNA/94df4234e0c226677bc5f7959da1e9ce" xlink:title="Embeddings_RNA\nhash: 94df4234e0c226677bc5f7959da1e9ce">
<path fill="none" stroke="#56d88a" stroke-width="2" stroke-dasharray="5,2" d="M442.3,-1152.33C442.3,-1152.33 241.05,-1152.33 241.05,-1152.33 235.05,-1152.33 229.05,-1146.33 229.05,-1140.33 229.05,-1140.33 229.05,-1127.83 229.05,-1127.83 229.05,-1121.83 235.05,-1115.83 241.05,-1115.83 241.05,-1115.83 442.3,-1115.83 442.3,-1115.83 448.3,-1115.83 454.3,-1121.83 454.3,-1127.83 454.3,-1127.83 454.3,-1140.33 454.3,-1140.33 454.3,-1146.33 448.3,-1152.33 442.3,-1152.33"/>
<text text-anchor="middle" x="341.68" y="-1138.83" font-family="sans" font-size="10.00">Embeddings_RNA</text>
<text text-anchor="middle" x="341.68" y="-1124.58" font-family="sans" font-size="10.00">hash: 94df4234e0c226677bc5f7959da1e9ce</text>
<text text-anchor="middle" x="341.68" y="-1110.33" font-family="sans" font-size="10.00">umap(m_dist~0.6_n_neigh~20)</text>
</a>
</g>
</g>
<!-- 14&#45;&gt;25 -->
<g id="edge23" class="edge">
<title>14&#45;&gt;25</title>
<path fill="none" stroke="grey" stroke-width="2" d="M470.54,-1057.91C446.04,-1072.39 412.07,-1092.47 385.16,-1108.37"/>
<polygon fill="grey" stroke="grey" stroke-width="2" points="383.54,-1105.27 376.71,-1113.37 387.1,-1111.29 383.54,-1105.27"/>
</g>
<!-- 29 -->
<g id="node29" class="node">
<title>29</title>
<g id="a_node29"><a xlink:href="./Embeddings_RNA/dcbfe175c1856f2f7fffef5241419edf" xlink:title="Embeddings_RNA\nhash: dcbfe175c1856f2f7fffef5241419edf">
<path fill="none" stroke="#56d88a" stroke-width="2" stroke-dasharray="5,2" d="M468.03,-923.59C468.03,-923.59 278.78,-923.59 278.78,-923.59 272.78,-923.59 266.78,-917.59 266.78,-911.59 266.78,-911.59 266.78,-899.09 266.78,-899.09 266.78,-893.09 272.78,-887.09 278.78,-887.09 278.78,-887.09 468.03,-887.09 468.03,-887.09 474.03,-887.09 480.03,-893.09 480.03,-899.09 480.03,-899.09 480.03,-911.59 480.03,-911.59 480.03,-917.59 474.03,-923.59 468.03,-923.59"/>
<text text-anchor="middle" x="373.41" y="-910.09" font-family="sans" font-size="10.00">Embeddings_RNA</text>
<text text-anchor="middle" x="373.41" y="-895.84" font-family="sans" font-size="10.00">hash: dcbfe175c1856f2f7fffef5241419edf</text>
<text text-anchor="middle" x="373.41" y="-881.59" font-family="sans" font-size="10.00">lsa()</text>
</a>
</g>
</g>
<!-- 14&#45;&gt;29 -->
<g id="edge27" class="edge">
<title>14&#45;&gt;29</title>
<path fill="none" stroke="grey" stroke-width="2" d="M498.29,-1019.69C492.69,-999.34 481.28,-967.33 461.11,-946.82 455.08,-940.68 447.97,-935.35 440.44,-930.73"/>
<polygon fill="grey" stroke="grey" stroke-width="2" points="442.28,-927.75 431.84,-925.95 438.88,-933.87 442.28,-927.75"/>
</g>
<!-- 37 -->
<g id="node37" class="node">
<title>37</title>
<g id="a_node37"><a xlink:href="./plot_embeddings_RNA/3487e5d0b91e6b17b931a9ddda8c5888" xlink:title="plot_embeddings_RNA\nhash: 3487e5d0b91e6b17b931a9ddda8c5888">
<path fill="none" stroke="#56d8c1" stroke-width="2" stroke-dasharray="5,2" d="M1505.56,-289.85C1505.56,-289.85 1297.56,-289.85 1297.56,-289.85 1291.56,-289.85 1285.56,-283.85 1285.56,-277.85 1285.56,-277.85 1285.56,-265.35 1285.56,-265.35 1285.56,-259.35 1291.56,-253.35 1297.56,-253.35 1297.56,-253.35 1505.56,-253.35 1505.56,-253.35 1511.56,-253.35 1517.56,-259.35 1517.56,-265.35 1517.56,-265.35 1517.56,-277.85 1517.56,-277.85 1517.56,-283.85 1511.56,-289.85 1505.56,-289.85"/>
<text text-anchor="middle" x="1401.56" y="-276.35" font-family="sans" font-size="10.00">plot_embeddings_RNA</text>
<text text-anchor="middle" x="1401.56" y="-262.1" font-family="sans" font-size="10.00">hash: 3487e5d0b91e6b17b931a9ddda8c5888</text>
<text text-anchor="middle" x="1401.56" y="-247.85" font-family="sans" font-size="10.00">lsa()</text>
</a>
</g>
</g>
<!-- 15&#45;&gt;37 -->
<g id="edge35" class="edge">
<title>15&#45;&gt;37</title>
<path fill="none" stroke="grey" stroke-width="2" d="M1280.43,-405.75C1304.49,-379.11 1348.29,-330.59 1376.11,-299.79"/>
<polygon fill="grey" stroke="grey" stroke-width="2" points="1378.4,-302.47 1382.51,-292.7 1373.21,-297.78 1378.4,-302.47"/>
</g>
<!-- 31 -->
<g id="node31" class="node">
<title>31</title>
<g id="a_node31"><a xlink:href="./plot_embeddings_RNA/04a7b6cdc150d35635d324a8ce92a109" xlink:title="plot_embeddings_RNA\nhash: 04a7b6cdc150d35635d324a8ce92a109">
<path fill="none" stroke="#56d8c1" stroke-width="2" stroke-dasharray="5,2" d="M1170.99,-92.88C1170.99,-92.88 966.74,-92.88 966.74,-92.88 960.74,-92.88 954.74,-86.88 954.74,-80.88 954.74,-80.88 954.74,-68.38 954.74,-68.38 954.74,-62.38 960.74,-56.38 966.74,-56.38 966.74,-56.38 1170.99,-56.38 1170.99,-56.38 1176.99,-56.38 1182.99,-62.38 1182.99,-68.38 1182.99,-68.38 1182.99,-80.88 1182.99,-80.88 1182.99,-86.88 1176.99,-92.88 1170.99,-92.88"/>
<text text-anchor="middle" x="1068.87" y="-79.38" font-family="sans" font-size="10.00">plot_embeddings_RNA</text>
<text text-anchor="middle" x="1068.87" y="-65.13" font-family="sans" font-size="10.00">hash: 04a7b6cdc150d35635d324a8ce92a109</text>
<text text-anchor="middle" x="1068.87" y="-50.879997" font-family="sans" font-size="10.00">umap(m_dist~0.6_n_neigh~20)</text>
</a>
</g>
</g>
<!-- 16&#45;&gt;31 -->
<g id="edge29" class="edge">
<title>16&#45;&gt;31</title>
<path fill="none" stroke="grey" stroke-width="2" d="M1000.95,-244.69C1014,-212.03 1040.62,-145.35 1056.39,-105.89"/>
<polygon fill="grey" stroke="grey" stroke-width="2" points="1059.6,-107.27 1060.06,-96.68 1053.1,-104.67 1059.6,-107.27"/>
</g>
<!-- 36 -->
<g id="node36" class="node">
<title>36</title>
<g id="a_node36"><a xlink:href="./plot_embeddings_RNA/3249aa927570687bfa13b8f8bbc541ff" xlink:title="plot_embeddings_RNA\nhash: 3249aa927570687bfa13b8f8bbc541ff">
<path fill="none" stroke="#56d8c1" stroke-width="2" stroke-dasharray="5,2" d="M1651.46,-447.45C1651.46,-447.45 1453.96,-447.45 1453.96,-447.45 1447.96,-447.45 1441.96,-441.45 1441.96,-435.45 1441.96,-435.45 1441.96,-422.95 1441.96,-422.95 1441.96,-416.95 1447.96,-410.95 1453.96,-410.95 1453.96,-410.95 1651.46,-410.95 1651.46,-410.95 1657.46,-410.95 1663.46,-416.95 1663.46,-422.95 1663.46,-422.95 1663.46,-435.45 1663.46,-435.45 1663.46,-441.45 1657.46,-447.45 1651.46,-447.45"/>
<text text-anchor="middle" x="1552.71" y="-433.95" font-family="sans" font-size="10.00">plot_embeddings_RNA</text>
<text text-anchor="middle" x="1552.71" y="-419.7" font-family="sans" font-size="10.00">hash: 3249aa927570687bfa13b8f8bbc541ff</text>
<text text-anchor="middle" x="1552.71" y="-405.45" font-family="sans" font-size="10.00">pca()</text>
</a>
</g>
</g>
<!-- 17&#45;&gt;36 -->
<g id="edge34" class="edge">
<title>17&#45;&gt;36</title>
<path fill="none" stroke="grey" stroke-width="2" d="M1405.53,-494.53C1432.82,-482.42 1468.33,-466.66 1497.63,-453.65"/>
<polygon fill="grey" stroke="grey" stroke-width="2" points="1498.86,-456.93 1506.58,-449.68 1496.02,-450.53 1498.86,-456.93"/>
</g>
<!-- 32 -->
<g id="node32" class="node">
<title>32</title>
<g id="a_node32"><a xlink:href="./plot_embeddings_RNA/05fb339f9e773f4bf14d66e9c5293d2d" xlink:title="plot_embeddings_RNA\nhash: 05fb339f9e773f4bf14d66e9c5293d2d">
<path fill="none" stroke="#56d8c1" stroke-width="2" stroke-dasharray="5,2" d="M695.2,-156.45C695.2,-156.45 494.7,-156.45 494.7,-156.45 488.7,-156.45 482.7,-150.45 482.7,-144.45 482.7,-144.45 482.7,-131.95 482.7,-131.95 482.7,-125.95 488.7,-119.95 494.7,-119.95 494.7,-119.95 695.2,-119.95 695.2,-119.95 701.2,-119.95 707.2,-125.95 707.2,-131.95 707.2,-131.95 707.2,-144.45 707.2,-144.45 707.2,-150.45 701.2,-156.45 695.2,-156.45"/>
<text text-anchor="middle" x="594.95" y="-142.95" font-family="sans" font-size="10.00">plot_embeddings_RNA</text>
<text text-anchor="middle" x="594.95" y="-128.7" font-family="sans" font-size="10.00">hash: 05fb339f9e773f4bf14d66e9c5293d2d</text>
<text text-anchor="middle" x="594.95" y="-114.45" font-family="sans" font-size="10.00">pca()</text>
</a>
</g>
</g>
<!-- 18&#45;&gt;32 -->
<g id="edge30" class="edge">
<title>18&#45;&gt;32</title>
<path fill="none" stroke="grey" stroke-width="2" d="M614.71,-329.76C606.41,-324.55 598.97,-318 593.84,-309.75 583.75,-293.57 586.68,-284.52 593.84,-266.85 605.78,-237.37 631.7,-244.93 643.64,-215.45 650.79,-197.78 652.41,-189.48 643.64,-172.55 642.54,-170.44 641.25,-168.43 639.81,-166.52"/>
<polygon fill="grey" stroke="grey" stroke-width="2" points="642.45,-164.22 632.99,-159.44 637.41,-169.07 642.45,-164.22"/>
</g>
<!-- 43 -->
<g id="node43" class="node">
<title>43</title>
<g id="a_node43"><a xlink:href="./plot_embeddings_RNA/db80d225b804d751e5d80c6226a2d137" xlink:title="plot_embeddings_RNA\nhash: db80d225b804d751e5d80c6226a2d137">
<path fill="none" stroke="#56d8c1" stroke-width="2" stroke-dasharray="5,2" d="M628.44,-212.25C628.44,-212.25 419.69,-212.25 419.69,-212.25 413.69,-212.25 407.69,-206.25 407.69,-200.25 407.69,-200.25 407.69,-187.75 407.69,-187.75 407.69,-181.75 413.69,-175.75 419.69,-175.75 419.69,-175.75 628.44,-175.75 628.44,-175.75 634.44,-175.75 640.44,-181.75 640.44,-187.75 640.44,-187.75 640.44,-200.25 640.44,-200.25 640.44,-206.25 634.44,-212.25 628.44,-212.25"/>
<text text-anchor="middle" x="524.06" y="-198.75" font-family="sans" font-size="10.00">plot_embeddings_RNA</text>
<text text-anchor="middle" x="524.06" y="-184.5" font-family="sans" font-size="10.00">hash: db80d225b804d751e5d80c6226a2d137</text>
<text text-anchor="middle" x="524.06" y="-170.25" font-family="sans" font-size="10.00">lsa()</text>
</a>
</g>
</g>
<!-- 19&#45;&gt;43 -->
<g id="edge41" class="edge">
<title>19&#45;&gt;43</title>
<path fill="none" stroke="grey" stroke-width="2" d="M674.2,-269.22C645.33,-254.76 605.42,-234.76 574,-219.02"/>
<polygon fill="grey" stroke="grey" stroke-width="2" points="575.63,-215.92 565.12,-214.57 572.5,-222.18 575.63,-215.92"/>
</g>
<!-- 39 -->
<g id="node39" class="node">
<title>39</title>
<g id="a_node39"><a xlink:href="./plot_embeddings_RNA/5923d76e2c8596a14bb1f3631fbe1281" xlink:title="plot_embeddings_RNA\nhash: 5923d76e2c8596a14bb1f3631fbe1281">
<path fill="none" stroke="#56d8c1" stroke-width="2" stroke-dasharray="5,2" d="M959.97,-36.5C959.97,-36.5 755.72,-36.5 755.72,-36.5 749.72,-36.5 743.72,-30.5 743.72,-24.5 743.72,-24.5 743.72,-12 743.72,-12 743.72,-6 749.72,0 755.72,0 755.72,0 959.97,0 959.97,0 965.97,0 971.97,-6 971.97,-12 971.97,-12 971.97,-24.5 971.97,-24.5 971.97,-30.5 965.97,-36.5 959.97,-36.5"/>
<text text-anchor="middle" x="857.85" y="-23" font-family="sans" font-size="10.00">plot_embeddings_RNA</text>
<text text-anchor="middle" x="857.85" y="-8.75" font-family="sans" font-size="10.00">hash: 5923d76e2c8596a14bb1f3631fbe1281</text>
<text text-anchor="middle" x="857.85" y="5.5" font-family="sans" font-size="10.00">tsne(px~50)</text>
</a>
</g>
</g>
<!-- 20&#45;&gt;39 -->
<g id="edge37" class="edge">
<title>20&#45;&gt;39</title>
<path fill="none" stroke="grey" stroke-width="2" d="M866.47,-199.25C864.83,-164.87 861.38,-92.46 859.38,-50.39"/>
<polygon fill="grey" stroke="grey" stroke-width="2" points="862.88,-50.23 858.9,-40.41 855.88,-50.57 862.88,-50.23"/>
</g>
<!-- 41 -->
<g id="node41" class="node">
<title>41</title>
<g id="a_node41"><a xlink:href="./plot_embeddings_RNA/cc19339f271b13903a52692f3e1659cf" xlink:title="plot_embeddings_RNA\nhash: cc19339f271b13903a52692f3e1659cf">
<path fill="none" stroke="#56d8c1" stroke-width="2" stroke-dasharray="5,2" d="M411.01,-1394.96C411.01,-1394.96 212.01,-1394.96 212.01,-1394.96 206.01,-1394.96 200.01,-1388.96 200.01,-1382.96 200.01,-1382.96 200.01,-1370.46 200.01,-1370.46 200.01,-1364.46 206.01,-1358.46 212.01,-1358.46 212.01,-1358.46 411.01,-1358.46 411.01,-1358.46 417.01,-1358.46 423.01,-1364.46 423.01,-1370.46 423.01,-1370.46 423.01,-1382.96 423.01,-1382.96 423.01,-1388.96 417.01,-1394.96 411.01,-1394.96"/>
<text text-anchor="middle" x="311.51" y="-1381.46" font-family="sans" font-size="10.00">plot_embeddings_RNA</text>
<text text-anchor="middle" x="311.51" y="-1367.21" font-family="sans" font-size="10.00">hash: cc19339f271b13903a52692f3e1659cf</text>
<text text-anchor="middle" x="311.51" y="-1352.96" font-family="sans" font-size="10.00">pca()</text>
</a>
</g>
</g>
<!-- 21&#45;&gt;41 -->
<g id="edge39" class="edge">
<title>21&#45;&gt;41</title>
<path fill="none" stroke="grey" stroke-width="2" d="M423.92,-1239.86C401.71,-1266.9 360.95,-1316.52 335.1,-1347.99"/>
<polygon fill="grey" stroke="grey" stroke-width="2" points="332.51,-1345.63 328.87,-1355.58 337.92,-1350.07 332.51,-1345.63"/>
</g>
<!-- 42 -->
<g id="node42" class="node">
<title>42</title>
<g id="a_node42"><a xlink:href="./plot_embeddings_RNA/cdc9ee00d1fb06dc052609852f922ab2" xlink:title="plot_embeddings_RNA\nhash: cdc9ee00d1fb06dc052609852f922ab2">
<path fill="none" stroke="#56d8c1" stroke-width="2" stroke-dasharray="5,2" d="M234.67,-861.84C234.67,-861.84 33.42,-861.84 33.42,-861.84 27.42,-861.84 21.42,-855.84 21.42,-849.84 21.42,-849.84 21.42,-837.34 21.42,-837.34 21.42,-831.34 27.42,-825.34 33.42,-825.34 33.42,-825.34 234.67,-825.34 234.67,-825.34 240.67,-825.34 246.67,-831.34 246.67,-837.34 246.67,-837.34 246.67,-849.84 246.67,-849.84 246.67,-855.84 240.67,-861.84 234.67,-861.84"/>
<text text-anchor="middle" x="134.05" y="-848.34" font-family="sans" font-size="10.00">plot_embeddings_RNA</text>
<text text-anchor="middle" x="134.05" y="-834.09" font-family="sans" font-size="10.00">hash: cdc9ee00d1fb06dc052609852f922ab2</text>
<text text-anchor="middle" x="134.05" y="-819.84" font-family="sans" font-size="10.00">tsne(px~50)</text>
</a>
</g>
</g>
<!-- 22&#45;&gt;42 -->
<g id="edge40" class="edge">
<title>22&#45;&gt;42</title>
<path fill="none" stroke="grey" stroke-width="2" d="M305.04,-949.15C291.75,-942.35 276.88,-934.47 263.58,-926.79 232.44,-908.78 198.24,-886.72 172.81,-869.84"/>
<polygon fill="grey" stroke="grey" stroke-width="2" points="174.91,-867.03 164.65,-864.39 171.02,-872.85 174.91,-867.03"/>
</g>
<!-- 44 -->
<g id="node44" class="node">
<title>44</title>
<g id="a_node44"><a xlink:href="./plot_embeddings_RNA/f40dab984a776cf9c14fbc83235d6ca0" xlink:title="plot_embeddings_RNA\nhash: f40dab984a776cf9c14fbc83235d6ca0">
<path fill="none" stroke="#56d8c1" stroke-width="2" stroke-dasharray="5,2" d="M970.18,-1616.86C970.18,-1616.86 774.18,-1616.86 774.18,-1616.86 768.18,-1616.86 762.18,-1610.86 762.18,-1604.86 762.18,-1604.86 762.18,-1592.36 762.18,-1592.36 762.18,-1586.36 768.18,-1580.36 774.18,-1580.36 774.18,-1580.36 970.18,-1580.36 970.18,-1580.36 976.18,-1580.36 982.18,-1586.36 982.18,-1592.36 982.18,-1592.36 982.18,-1604.86 982.18,-1604.86 982.18,-1610.86 976.18,-1616.86 970.18,-1616.86"/>
<text text-anchor="middle" x="872.18" y="-1603.36" font-family="sans" font-size="10.00">plot_embeddings_RNA</text>
<text text-anchor="middle" x="872.18" y="-1589.11" font-family="sans" font-size="10.00">hash: f40dab984a776cf9c14fbc83235d6ca0</text>
<text text-anchor="middle" x="872.18" y="-1574.86" font-family="sans" font-size="10.00">pca()</text>
</a>
</g>
</g>
<!-- 23&#45;&gt;44 -->
<g id="edge42" class="edge">
<title>23&#45;&gt;44</title>
<path fill="none" stroke="grey" stroke-width="2" d="M851.28,-1418.99C855.25,-1453.11 863.61,-1524.96 868.46,-1566.71"/>
<polygon fill="grey" stroke="grey" stroke-width="2" points="864.98,-1567.08 869.62,-1576.61 871.94,-1566.27 864.98,-1567.08"/>
</g>
<!-- 46 -->
<g id="node46" class="node">
<title>46</title>
<g id="a_node46"><a xlink:href="./plot_embeddings_RNA/f8c889679607af477ae045d124a713ed" xlink:title="plot_embeddings_RNA\nhash: f8c889679607af477ae045d124a713ed">
<path fill="none" stroke="#56d8c1" stroke-width="2" stroke-dasharray="5,2" d="M741.91,-1573.59C741.91,-1573.59 539.16,-1573.59 539.16,-1573.59 533.16,-1573.59 527.16,-1567.59 527.16,-1561.59 527.16,-1561.59 527.16,-1549.09 527.16,-1549.09 527.16,-1543.09 533.16,-1537.09 539.16,-1537.09 539.16,-1537.09 741.91,-1537.09 741.91,-1537.09 747.91,-1537.09 753.91,-1543.09 753.91,-1549.09 753.91,-1549.09 753.91,-1561.59 753.91,-1561.59 753.91,-1567.59 747.91,-1573.59 741.91,-1573.59"/>
<text text-anchor="middle" x="640.54" y="-1560.09" font-family="sans" font-size="10.00">plot_embeddings_RNA</text>
<text text-anchor="middle" x="640.54" y="-1545.84" font-family="sans" font-size="10.00">hash: f8c889679607af477ae045d124a713ed</text>
<text text-anchor="middle" x="640.54" y="-1531.59" font-family="sans" font-size="10.00">umap(m_dist~0.6_n_neigh~20)</text>
</a>
</g>
</g>
<!-- 24&#45;&gt;46 -->
<g id="edge44" class="edge">
<title>24&#45;&gt;46</title>
<path fill="none" stroke="grey" stroke-width="2" d="M681.92,-1374.58C674.02,-1409.06 657.36,-1481.85 647.76,-1523.79"/>
<polygon fill="grey" stroke="grey" stroke-width="2" points="644.41,-1522.75 645.59,-1533.28 651.23,-1524.31 644.41,-1522.75"/>
</g>
<!-- 34 -->
<g id="node34" class="node">
<title>34</title>
<g id="a_node34"><a xlink:href="./plot_embeddings_RNA/14b5d3c02a1c804777ee2cfc048470f7" xlink:title="plot_embeddings_RNA\nhash: 14b5d3c02a1c804777ee2cfc048470f7">
<path fill="none" stroke="#56d8c1" stroke-width="2" stroke-dasharray="5,2" d="M256.42,-1237.06C256.42,-1237.06 56.67,-1237.06 56.67,-1237.06 50.67,-1237.06 44.67,-1231.06 44.67,-1225.06 44.67,-1225.06 44.67,-1212.56 44.67,-1212.56 44.67,-1206.56 50.67,-1200.56 56.67,-1200.56 56.67,-1200.56 256.42,-1200.56 256.42,-1200.56 262.42,-1200.56 268.42,-1206.56 268.42,-1212.56 268.42,-1212.56 268.42,-1225.06 268.42,-1225.06 268.42,-1231.06 262.42,-1237.06 256.42,-1237.06"/>
<text text-anchor="middle" x="156.54" y="-1223.56" font-family="sans" font-size="10.00">plot_embeddings_RNA</text>
<text text-anchor="middle" x="156.54" y="-1209.31" font-family="sans" font-size="10.00">hash: 14b5d3c02a1c804777ee2cfc048470f7</text>
<text text-anchor="middle" x="156.54" y="-1195.06" font-family="sans" font-size="10.00">umap(m_dist~0.6_n_neigh~20)</text>
</a>
</g>
</g>
<!-- 25&#45;&gt;34 -->
<g id="edge32" class="edge">
<title>25&#45;&gt;34</title>
<path fill="none" stroke="grey" stroke-width="2" d="M299.67,-1153.3C273.16,-1165.44 238.67,-1181.22 210.18,-1194.26"/>
<polygon fill="grey" stroke="grey" stroke-width="2" points="208.78,-1191.05 201.14,-1198.4 211.69,-1197.42 208.78,-1191.05"/>
</g>
<!-- 38 -->
<g id="node38" class="node">
<title>38</title>
<g id="a_node38"><a xlink:href="./plot_embeddings_RNA/40513bcdee209dfce96b20d12c6c85fa" xlink:title="plot_embeddings_RNA\nhash: 40513bcdee209dfce96b20d12c6c85fa">
<path fill="none" stroke="#56d8c1" stroke-width="2" stroke-dasharray="5,2" d="M1183.66,-1536.16C1183.66,-1536.16 983.91,-1536.16 983.91,-1536.16 977.91,-1536.16 971.91,-1530.16 971.91,-1524.16 971.91,-1524.16 971.91,-1511.66 971.91,-1511.66 971.91,-1505.66 977.91,-1499.66 983.91,-1499.66 983.91,-1499.66 1183.66,-1499.66 1183.66,-1499.66 1189.66,-1499.66 1195.66,-1505.66 1195.66,-1511.66 1195.66,-1511.66 1195.66,-1524.16 1195.66,-1524.16 1195.66,-1530.16 1189.66,-1536.16 1183.66,-1536.16"/>
<text text-anchor="middle" x="1083.78" y="-1522.66" font-family="sans" font-size="10.00">plot_embeddings_RNA</text>
<text text-anchor="middle" x="1083.78" y="-1508.41" font-family="sans" font-size="10.00">hash: 40513bcdee209dfce96b20d12c6c85fa</text>
<text text-anchor="middle" x="1083.78" y="-1494.16" font-family="sans" font-size="10.00">lsa()</text>
</a>
</g>
</g>
<!-- 26&#45;&gt;38 -->
<g id="edge36" class="edge">
<title>26&#45;&gt;38</title>
<path fill="none" stroke="grey" stroke-width="2" d="M978.98,-1364.48C999.42,-1394.41 1039.14,-1452.55 1063.38,-1488.04"/>
<polygon fill="grey" stroke="grey" stroke-width="2" points="1060.42,-1489.91 1068.95,-1496.2 1066.2,-1485.97 1060.42,-1489.91"/>
</g>
<!-- 35 -->
<g id="node35" class="node">
<title>35</title>
<g id="a_node35"><a xlink:href="./plot_embeddings_RNA/2652e61237cf64a0bcf53f76c1f70128" xlink:title="plot_embeddings_RNA\nhash: 2652e61237cf64a0bcf53f76c1f70128">
<path fill="none" stroke="#56d8c1" stroke-width="2" stroke-dasharray="5,2" d="M1714.35,-674.66C1714.35,-674.66 1517.6,-674.66 1517.6,-674.66 1511.6,-674.66 1505.6,-668.66 1505.6,-662.66 1505.6,-662.66 1505.6,-650.16 1505.6,-650.16 1505.6,-644.16 1511.6,-638.16 1517.6,-638.16 1517.6,-638.16 1714.35,-638.16 1714.35,-638.16 1720.35,-638.16 1726.35,-644.16 1726.35,-650.16 1726.35,-650.16 1726.35,-662.66 1726.35,-662.66 1726.35,-668.66 1720.35,-674.66 1714.35,-674.66"/>
<text text-anchor="middle" x="1615.97" y="-661.16" font-family="sans" font-size="10.00">plot_embeddings_RNA</text>
<text text-anchor="middle" x="1615.97" y="-646.91" font-family="sans" font-size="10.00">hash: 2652e61237cf64a0bcf53f76c1f70128</text>
<text text-anchor="middle" x="1615.97" y="-632.66" font-family="sans" font-size="10.00">umap(m_dist~0.6_n_neigh~20)</text>
</a>
</g>
</g>
<!-- 27&#45;&gt;35 -->
<g id="edge33" class="edge">
<title>27&#45;&gt;35</title>
<path fill="none" stroke="grey" stroke-width="2" d="M1498.22,-653.62C1498.35,-653.62 1498.49,-653.62 1498.62,-653.63"/>
<polygon fill="grey" stroke="grey" stroke-width="2" points="1491.62,-656.96 1501.7,-653.7 1491.79,-649.96 1491.62,-656.96"/>
</g>
<!-- 40 -->
<g id="node40" class="node">
<title>40</title>
<g id="a_node40"><a xlink:href="./plot_embeddings_RNA/8a0bc858b2ba4b93bca6b3c9cb358df4" xlink:title="plot_embeddings_RNA\nhash: 8a0bc858b2ba4b93bca6b3c9cb358df4">
<path fill="none" stroke="#56d8c1" stroke-width="2" stroke-dasharray="5,2" d="M1629.83,-858.48C1629.83,-858.48 1429.33,-858.48 1429.33,-858.48 1423.33,-858.48 1417.33,-852.48 1417.33,-846.48 1417.33,-846.48 1417.33,-833.98 1417.33,-833.98 1417.33,-827.98 1423.33,-821.98 1429.33,-821.98 1429.33,-821.98 1629.83,-821.98 1629.83,-821.98 1635.83,-821.98 1641.83,-827.98 1641.83,-833.98 1641.83,-833.98 1641.83,-846.48 1641.83,-846.48 1641.83,-852.48 1635.83,-858.48 1629.83,-858.48"/>
<text text-anchor="middle" x="1529.58" y="-844.98" font-family="sans" font-size="10.00">plot_embeddings_RNA</text>
<text text-anchor="middle" x="1529.58" y="-830.73" font-family="sans" font-size="10.00">hash: 8a0bc858b2ba4b93bca6b3c9cb358df4</text>
<text text-anchor="middle" x="1529.58" y="-816.48" font-family="sans" font-size="10.00">tsne(px~50)</text>
</a>
</g>
</g>
<!-- 28&#45;&gt;40 -->
<g id="edge38" class="edge">
<title>28&#45;&gt;40</title>
<path fill="none" stroke="grey" stroke-width="2" d="M1375.78,-779.28C1403.82,-790.39 1439.35,-804.47 1469.2,-816.3"/>
<polygon fill="grey" stroke="grey" stroke-width="2" points="1467.78,-819.5 1478.37,-819.93 1470.36,-813 1467.78,-819.5"/>
</g>
<!-- 45 -->
<g id="node45" class="node">
<title>45</title>
<g id="a_node45"><a xlink:href="./plot_embeddings_RNA/f4f4add4048e18cf992bd253ef0a8cd3" xlink:title="plot_embeddings_RNA\nhash: f4f4add4048e18cf992bd253ef0a8cd3">
<path fill="none" stroke="#56d8c1" stroke-width="2" stroke-dasharray="5,2" d="M209.5,-948.41C209.5,-948.41 12,-948.41 12,-948.41 6,-948.41 0,-942.41 0,-936.41 0,-936.41 0,-923.91 0,-923.91 0,-917.91 6,-911.91 12,-911.91 12,-911.91 209.5,-911.91 209.5,-911.91 215.5,-911.91 221.5,-917.91 221.5,-923.91 221.5,-923.91 221.5,-936.41 221.5,-936.41 221.5,-942.41 215.5,-948.41 209.5,-948.41"/>
<text text-anchor="middle" x="110.75" y="-934.91" font-family="sans" font-size="10.00">plot_embeddings_RNA</text>
<text text-anchor="middle" x="110.75" y="-920.66" font-family="sans" font-size="10.00">hash: f4f4add4048e18cf992bd253ef0a8cd3</text>
<text text-anchor="middle" x="110.75" y="-906.41" font-family="sans" font-size="10.00">lsa()</text>
</a>
</g>
</g>
<!-- 29&#45;&gt;45 -->
<g id="edge43" class="edge">
<title>29&#45;&gt;45</title>
<path fill="none" stroke="grey" stroke-width="2" d="M265.82,-915.51C255.76,-916.46 245.5,-917.43 235.3,-918.39"/>
<polygon fill="grey" stroke="grey" stroke-width="2" points="235.07,-914.9 225.45,-919.32 235.73,-921.86 235.07,-914.9"/>
</g>
<!-- 33 -->
<g id="node33" class="node">
<title>33</title>
<g id="a_node33"><a xlink:href="./plot_embeddings_RNA/083e0a33b6663a403817e1a4c438941b" xlink:title="plot_embeddings_RNA\nhash: 083e0a33b6663a403817e1a4c438941b">
<path fill="none" stroke="#56d8c1" stroke-width="2" stroke-dasharray="5,2" d="M1306.72,-1382.27C1306.72,-1382.27 1099.47,-1382.27 1099.47,-1382.27 1093.47,-1382.27 1087.47,-1376.27 1087.47,-1370.27 1087.47,-1370.27 1087.47,-1357.77 1087.47,-1357.77 1087.47,-1351.77 1093.47,-1345.77 1099.47,-1345.77 1099.47,-1345.77 1306.72,-1345.77 1306.72,-1345.77 1312.72,-1345.77 1318.72,-1351.77 1318.72,-1357.77 1318.72,-1357.77 1318.72,-1370.27 1318.72,-1370.27 1318.72,-1376.27 1312.72,-1382.27 1306.72,-1382.27"/>
<text text-anchor="middle" x="1203.1" y="-1368.77" font-family="sans" font-size="10.00">plot_embeddings_RNA</text>
<text text-anchor="middle" x="1203.1" y="-1354.52" font-family="sans" font-size="10.00">hash: 083e0a33b6663a403817e1a4c438941b</text>
<text text-anchor="middle" x="1203.1" y="-1340.27" font-family="sans" font-size="10.00">tsne(px~50)</text>
</a>
</g>
</g>
<!-- 30&#45;&gt;33 -->
<g id="edge31" class="edge">
<title>30&#45;&gt;33</title>
<path fill="none" stroke="grey" stroke-width="2" d="M1071.23,-1262.04C1097.36,-1282.25 1138.71,-1314.23 1168.13,-1336.98"/>
<polygon fill="grey" stroke="grey" stroke-width="2" points="1165.94,-1339.71 1175.99,-1343.06 1170.22,-1334.17 1165.94,-1339.71"/>
</g>
</g>
</svg>
